<svg width="164" height="26" viewBox="0 0 164 26" fill="none" xmlns="http://www.w3.org/2000/svg">
<path d="M5.90415 20.2295V6.19063H0.410278V2.92808H15.3713V6.19063H9.87739V20.2295H5.90415Z" fill="#169A13"/>
<path d="M22.5193 20.4272C21.4238 20.4272 20.4428 20.213 19.5762 19.7846C18.7259 19.3562 18.0637 18.7053 17.5895 17.832C17.1154 16.9422 16.8783 15.8135 16.8783 14.4459V6.93212H20.7044V13.8774C20.7044 14.9814 20.9333 15.797 21.3911 16.3243C21.8653 16.8351 22.5275 17.0905 23.3777 17.0905C23.9664 17.0905 24.4896 16.967 24.9474 16.7198C25.4052 16.4561 25.7649 16.0607 26.0266 15.5334C26.2882 14.9896 26.419 14.3141 26.419 13.5067V6.93212H30.2451V20.2295H26.6152V16.5715L27.2774 17.6343C26.8359 18.557 26.1819 19.2573 25.3153 19.7352C24.4651 20.1966 23.5331 20.4272 22.5193 20.4272Z" fill="#169A13"/>
<path d="M33.7897 20.2295V6.93212H37.4441V10.689L36.929 9.60149C37.3214 8.66227 37.951 7.95373 38.8175 7.47588C39.6841 6.98156 40.7388 6.73439 41.9814 6.73439V10.2935C41.8179 10.2771 41.6708 10.2688 41.54 10.2688C41.4091 10.2523 41.2702 10.2441 41.123 10.2441C40.0766 10.2441 39.2263 10.5489 38.5723 11.1586C37.9346 11.7518 37.6158 12.6828 37.6158 13.9516V20.2295H33.7897Z" fill="#169A13"/>
<path d="M44.8182 20.2295V6.63553C44.8182 5.13607 45.2597 3.94145 46.1426 3.05166C47.0256 2.14539 48.2846 1.69226 49.9197 1.69226C50.4756 1.69226 51.007 1.74993 51.5139 1.86528C52.0371 1.98062 52.4786 2.16187 52.8383 2.40904L51.8327 5.20198C51.6202 5.05368 51.3831 4.93834 51.1215 4.85595C50.8598 4.77356 50.5819 4.73237 50.2876 4.73237C49.7316 4.73237 49.2983 4.89715 48.9877 5.2267C48.6934 5.53977 48.5462 6.01762 48.5462 6.66024V7.89606L48.6443 9.55205V20.2295H44.8182ZM42.7826 10.1947V7.22872H51.9308V10.1947H42.7826Z" fill="#169A13"/>
<path d="M58.9672 20.2296V2.92815H67.3551C69.5134 2.92815 71.1322 3.34009 72.2113 4.16397C73.3068 4.98785 73.8546 6.07537 73.8546 7.42653C73.8546 8.33279 73.6338 9.12371 73.1924 9.79929C72.7509 10.4584 72.1459 10.9692 71.3774 11.3317C70.6089 11.6942 69.726 11.8755 68.7286 11.8755L69.1946 10.8621C70.2737 10.8621 71.2303 11.0433 72.0642 11.4059C72.898 11.7519 73.5439 12.2709 74.0017 12.963C74.4759 13.655 74.713 14.5036 74.713 15.5088C74.713 16.9917 74.1325 18.1534 72.9716 18.9938C71.8107 19.8176 70.1021 20.2296 67.8456 20.2296H58.9672ZM62.9159 17.2142H67.5513C68.5814 17.2142 69.3581 17.0494 69.8813 16.7199C70.4209 16.3738 70.6907 15.8301 70.6907 15.0886C70.6907 14.3636 70.4209 13.8281 69.8813 13.482C69.3581 13.1195 68.5814 12.9383 67.5513 12.9383H62.6216V10.0217H66.8646C67.8293 10.0217 68.5651 9.85696 69.072 9.52741C69.5952 9.18138 69.8568 8.66234 69.8568 7.97028C69.8568 7.2947 69.5952 6.79214 69.072 6.46259C68.5651 6.11656 67.8293 5.94355 66.8646 5.94355H62.9159V17.2142Z" fill="#1C592C"/>
<path d="M83.73 20.4273C82.3238 20.4273 81.073 20.1307 79.9775 19.5375C78.8983 18.9443 78.0399 18.1369 77.4022 17.1153C76.7809 16.0772 76.4702 14.8991 76.4702 13.5809C76.4702 12.2462 76.7809 11.0681 77.4022 10.0465C78.0399 9.00837 78.8983 8.20097 79.9775 7.62426C81.073 7.03106 82.3238 6.73447 83.73 6.73447C85.1198 6.73447 86.3625 7.03106 87.458 7.62426C88.5535 8.20097 89.4119 9.00013 90.0332 10.0217C90.6546 11.0433 90.9652 12.2297 90.9652 13.5809C90.9652 14.8991 90.6546 16.0772 90.0332 17.1153C89.4119 18.1369 88.5535 18.9443 87.458 19.5375C86.3625 20.1307 85.1198 20.4273 83.73 20.4273ZM83.73 17.2636C84.3677 17.2636 84.94 17.1153 85.4468 16.8187C85.9537 16.5221 86.3543 16.102 86.6486 15.5582C86.9429 14.998 87.0901 14.3389 87.0901 13.5809C87.0901 12.8064 86.9429 12.1473 86.6486 11.6036C86.3543 11.0598 85.9537 10.6396 85.4468 10.3431C84.94 10.0465 84.3677 9.89816 83.73 9.89816C83.0923 9.89816 82.52 10.0465 82.0132 10.3431C81.5063 10.6396 81.0975 11.0598 80.7869 11.6036C80.4925 12.1473 80.3454 12.8064 80.3454 13.5809C80.3454 14.3389 80.4925 14.998 80.7869 15.5582C81.0975 16.102 81.5063 16.5221 82.0132 16.8187C82.52 17.1153 83.0923 17.2636 83.73 17.2636Z" fill="#1C592C"/>
<path d="M99.8014 20.4273C98.3952 20.4273 97.1444 20.1307 96.0489 19.5375C94.9697 18.9443 94.1113 18.1369 93.4736 17.1153C92.8523 16.0772 92.5416 14.8991 92.5416 13.5809C92.5416 12.2462 92.8523 11.0681 93.4736 10.0465C94.1113 9.00837 94.9697 8.20097 96.0489 7.62426C97.1444 7.03106 98.3952 6.73447 99.8014 6.73447C101.191 6.73447 102.434 7.03106 103.529 7.62426C104.625 8.20097 105.483 9.00013 106.105 10.0217C106.726 11.0433 107.037 12.2297 107.037 13.5809C107.037 14.8991 106.726 16.0772 106.105 17.1153C105.483 18.1369 104.625 18.9443 103.529 19.5375C102.434 20.1307 101.191 20.4273 99.8014 20.4273ZM99.8014 17.2636C100.439 17.2636 101.011 17.1153 101.518 16.8187C102.025 16.5221 102.426 16.102 102.72 15.5582C103.014 14.998 103.161 14.3389 103.161 13.5809C103.161 12.8064 103.014 12.1473 102.72 11.6036C102.426 11.0598 102.025 10.6396 101.518 10.3431C101.011 10.0465 100.439 9.89816 99.8014 9.89816C99.1637 9.89816 98.5914 10.0465 98.0845 10.3431C97.5777 10.6396 97.1689 11.0598 96.8582 11.6036C96.5639 12.1473 96.4168 12.8064 96.4168 13.5809C96.4168 14.3389 96.5639 14.998 96.8582 15.5582C97.1689 16.102 97.5777 16.5221 98.0845 16.8187C98.5914 17.1153 99.1637 17.2636 99.8014 17.2636Z" fill="#1C592C"/>
<path d="M112.758 17.5108L112.856 12.8147L119.012 6.9322H123.574L117.663 12.9877L115.677 14.619L112.758 17.5108ZM109.594 20.2296V1.89007H113.42V20.2296H109.594ZM119.429 20.2296L114.965 14.6437L117.369 11.653L124.064 20.2296H119.429Z" fill="#1C592C"/>
<path d="M125.785 20.2296V6.9322H129.611V20.2296H125.785ZM127.698 5.07847C126.995 5.07847 126.423 4.8725 125.981 4.46057C125.54 4.04863 125.319 3.53782 125.319 2.92815C125.319 2.31848 125.54 1.80768 125.981 1.39574C126.423 0.983802 126.995 0.777832 127.698 0.777832C128.401 0.777832 128.974 0.975563 129.415 1.37103C129.856 1.75001 130.077 2.24434 130.077 2.854C130.077 3.49663 129.856 4.03215 129.415 4.46057C128.99 4.8725 128.418 5.07847 127.698 5.07847Z" fill="#1C592C"/>
<path d="M141.182 6.73447C142.229 6.73447 143.161 6.94868 143.978 7.37709C144.812 7.78903 145.466 8.43165 145.94 9.30497C146.414 10.1618 146.652 11.2658 146.652 12.617V20.2296H142.826V13.2101C142.826 12.1391 142.588 11.3482 142.114 10.8374C141.656 10.3266 141.002 10.0712 140.152 10.0712C139.547 10.0712 138.999 10.203 138.509 10.4666C138.035 10.7138 137.659 11.101 137.381 11.6283C137.119 12.1556 136.988 12.8312 136.988 13.655V20.2296H133.162V6.9322H136.817V10.6149L136.13 9.5027C136.604 8.61291 137.283 7.92909 138.166 7.45124C139.048 6.97339 140.054 6.73447 141.182 6.73447Z" fill="#1C592C"/>
<path d="M156.421 25.2223C155.178 25.2223 153.976 25.0657 152.815 24.7527C151.671 24.4561 150.714 24.0029 149.946 23.3933L151.466 20.625C152.022 21.0864 152.725 21.4489 153.576 21.7126C154.442 21.9927 155.292 22.1327 156.126 22.1327C157.483 22.1327 158.465 21.8279 159.07 21.2182C159.691 20.6086 160.002 19.7023 160.002 18.4994V16.4974L160.247 13.1607L160.198 9.79929V6.9322H163.828V18.0051C163.828 20.4767 163.19 22.2975 161.915 23.4674C160.639 24.6373 158.808 25.2223 156.421 25.2223ZM155.832 19.587C154.606 19.587 153.494 19.3233 152.496 18.796C151.515 18.2523 150.722 17.5025 150.117 16.5468C149.529 15.5747 149.234 14.446 149.234 13.1607C149.234 11.859 149.529 10.7303 150.117 9.77458C150.722 8.8024 151.515 8.05267 152.496 7.52539C153.494 6.99811 154.606 6.73447 155.832 6.73447C156.944 6.73447 157.925 6.96515 158.775 7.42653C159.625 7.87142 160.288 8.57171 160.762 9.52741C161.236 10.4666 161.473 11.6777 161.473 13.1607C161.473 14.6272 161.236 15.8383 160.762 16.794C160.288 17.7332 159.625 18.4335 158.775 18.8949C157.925 19.3563 156.944 19.587 155.832 19.587ZM156.592 16.4233C157.263 16.4233 157.86 16.2914 158.383 16.0278C158.906 15.7477 159.315 15.3605 159.609 14.8661C159.903 14.3718 160.051 13.8033 160.051 13.1607C160.051 12.5016 159.903 11.9331 159.609 11.4553C159.315 10.961 158.906 10.582 158.383 10.3183C157.86 10.0382 157.263 9.89816 156.592 9.89816C155.922 9.89816 155.325 10.0382 154.802 10.3183C154.279 10.582 153.862 10.961 153.551 11.4553C153.257 11.9331 153.11 12.5016 153.11 13.1607C153.11 13.8033 153.257 14.3718 153.551 14.8661C153.862 15.3605 154.279 15.7477 154.802 16.0278C155.325 16.2914 155.922 16.4233 156.592 16.4233Z" fill="#1C592C"/>
</svg>
