<svg width="53" height="20" viewBox="0 0 53 20" fill="none" xmlns="http://www.w3.org/2000/svg">
<path d="M5.90415 19.2295V5.19063H0.410278V1.92808H15.3713V5.19063H9.87739V19.2295H5.90415Z" fill="#169A13"/>
<path d="M22.5193 19.4272C21.4238 19.4272 20.4428 19.213 19.5762 18.7846C18.7259 18.3562 18.0637 17.7053 17.5895 16.832C17.1154 15.9422 16.8783 14.8135 16.8783 13.4459V5.93212H20.7044V12.8774C20.7044 13.9814 20.9333 14.797 21.3911 15.3243C21.8653 15.8351 22.5275 16.0905 23.3777 16.0905C23.9664 16.0905 24.4896 15.967 24.9474 15.7198C25.4052 15.4561 25.7649 15.0607 26.0266 14.5334C26.2882 13.9896 26.419 13.3141 26.419 12.5067V5.93212H30.2451V19.2295H26.6152V15.5715L27.2774 16.6343C26.8359 17.557 26.1819 18.2573 25.3153 18.7352C24.4651 19.1966 23.5331 19.4272 22.5193 19.4272Z" fill="#169A13"/>
<path d="M33.7897 19.2295V5.93212H37.4441V9.689L36.929 8.60149C37.3214 7.66227 37.951 6.95373 38.8175 6.47588C39.6841 5.98156 40.7388 5.73439 41.9814 5.73439V9.29354C41.8179 9.27707 41.6708 9.26883 41.54 9.26883C41.4091 9.25235 41.2702 9.24411 41.123 9.24411C40.0766 9.24411 39.2263 9.54895 38.5723 10.1586C37.9346 10.7518 37.6158 11.6828 37.6158 12.9516V19.2295H33.7897Z" fill="#169A13"/>
<path d="M44.8182 19.2295V5.63553C44.8182 4.13607 45.2597 2.94145 46.1426 2.05166C47.0256 1.14539 48.2846 0.692261 49.9197 0.692261C50.4756 0.692261 51.007 0.749932 51.5139 0.865276C52.0371 0.980618 52.4786 1.16187 52.8383 1.40904L51.8327 4.20198C51.6202 4.05368 51.3831 3.93834 51.1215 3.85595C50.8598 3.77356 50.5819 3.73237 50.2876 3.73237C49.7316 3.73237 49.2983 3.89715 48.9877 4.2267C48.6934 4.53977 48.5462 5.01762 48.5462 5.66024V6.89606L48.6443 8.55205V19.2295H44.8182ZM42.7826 9.19468V6.22872H51.9308V9.19468H42.7826Z" fill="#169A13"/>
</svg>
